<svg width="168" height="61" viewBox="0 0 168 61" fill="none" xmlns="http://www.w3.org/2000/svg">
<g clip-path="url(#clip0_152_1737)">
<g clip-path="url(#clip1_152_1737)">
<path d="M64.0157 9.34738V30.9254H59.2891V9.24463H54.9735V30.9254L59.4946 35.241H64.0157V46.5437H54.9735V50.8593H64.0157L68.3313 46.5437V9.34738H64.0157ZM38.1221 9.34738V51.0648H42.4377V13.5602H47.5753V51.1676L51.8909 51.0648V13.5602V9.24463H38.1221V9.34738ZM21.168 9.24463L25.4836 13.5602H30.5184V30.9254H25.5863L21.2707 35.241V51.0648H25.6891L30.5184 46.6465H25.5863V35.3437H30.5184V51.1676H34.9368V13.5602L30.5184 9.24463H21.168Z" fill="white"/>
<path d="M13.8703 13.5602H18.2886V30.9254H13.8703V13.5602ZM22.707 30.9254V13.5602L18.2886 9.24463H9.55469V51.1676H13.8703V35.241H18.3914L22.707 30.9254Z" fill="white"/>
<path d="M74.0844 48.9072L66.8917 56.4081H4.00734V4.00441H74.0844V48.9072ZM0 -0.00292969V60.3127H68.5358L77.989 50.4484V-0.00292969H0Z" fill="white"/>
<path d="M87.586 4.64756C88.4165 4.64756 88.8911 3.93571 88.8911 2.98658C88.8911 1.91882 88.5352 1.20697 87.7047 1.20697H85.0946V4.64756H87.586ZM84.2641 7.9695V0.61377H87.586C89.247 0.61377 89.7216 1.80018 89.7216 2.98658C89.7216 4.17299 89.247 5.24076 87.7047 5.24076H85.0946V7.9695H84.2641ZM94.5858 3.10523C93.2808 3.10523 92.9249 3.46115 92.9249 5.24076C92.9249 7.02037 93.2808 7.37629 94.5858 7.37629C95.7722 7.49493 96.2468 7.02037 96.2468 5.3594C96.2468 3.46115 95.7722 3.10523 94.5858 3.10523ZM94.5858 8.08814C92.9249 8.08814 92.0944 7.37629 92.0944 5.24076C92.0944 3.10523 92.9249 2.39338 94.5858 2.39338C96.2468 2.39338 97.0773 2.98659 97.0773 5.24076C96.9586 7.49493 96.2468 8.08814 94.5858 8.08814ZM103.721 7.85086C103.365 7.9695 102.653 8.08814 102.179 8.08814C100.518 8.08814 99.5687 7.37629 99.5687 5.24076C99.5687 3.10523 100.518 2.39338 102.179 2.39338C102.653 2.39338 103.365 2.51202 103.721 2.63066L103.484 3.22387C103.128 2.98658 102.653 2.98658 102.179 2.98658C100.874 2.98658 100.399 3.34251 100.399 5.12212C100.399 7.02037 100.992 7.49493 102.179 7.49493C102.653 7.49493 103.128 7.37629 103.484 7.25765L103.721 7.85086ZM110.009 7.85086C109.653 8.08814 108.941 8.20678 108.467 8.20678C106.806 8.20678 105.857 7.49493 105.857 5.3594C105.857 3.22387 106.806 2.51202 108.467 2.51202C108.941 2.51202 109.653 2.63066 110.009 2.7493L109.772 3.34251C109.416 3.10523 108.941 3.10523 108.467 3.10523C107.162 3.10523 106.687 3.46115 106.687 5.24076C106.687 7.02037 107.28 7.37629 108.467 7.37629C108.941 7.37629 109.416 7.25765 109.772 7.13901L110.009 7.85086ZM115.823 3.81707C114.992 5.24076 113.924 6.78309 112.857 8.08814H112.145V2.63066H112.857V7.02037C113.924 5.71532 114.873 4.17299 115.823 2.63066H116.534V7.9695H115.823V3.81707ZM120.805 0.61377C120.805 1.20697 121.043 1.32561 121.636 1.32561C122.229 1.32561 122.466 1.20697 122.466 0.61377H123.06C123.06 1.5629 122.585 1.91882 121.636 1.91882C120.687 1.91882 120.212 1.44425 120.212 0.61377H120.805ZM123.06 3.81707C122.229 5.24076 121.161 6.78309 120.094 8.08814H119.382V2.63066H120.094V7.02037C121.161 5.71532 122.11 4.17299 123.06 2.63066H123.771V7.9695H123.06V3.81707ZM130.653 7.85086C130.297 8.08814 129.585 8.20678 129.11 8.20678C127.449 8.20678 126.5 7.49493 126.5 5.3594C126.5 3.22387 127.449 2.51202 129.11 2.51202C129.585 2.51202 130.297 2.63066 130.653 2.7493L130.415 3.34251C130.059 3.10523 129.585 3.10523 129.11 3.10523C127.805 3.10523 127.331 3.46115 127.331 5.24076C127.331 7.02037 127.924 7.37629 129.11 7.37629C129.585 7.37629 130.059 7.25765 130.415 7.13901C130.415 7.25765 130.653 7.85086 130.653 7.85086ZM136.347 7.9695C135.161 5.83396 134.33 5.47804 133.619 5.3594V7.9695H132.907V2.63066H133.619V5.24076C134.093 4.88484 135.042 3.81707 136.11 2.63066H137.059C135.754 4.05435 135.042 4.88484 134.686 5.12212C135.28 5.3594 135.754 5.59668 137.297 8.08814H136.347V7.9695ZM142.754 7.25765V5.3594C142.398 5.24076 141.805 5.24076 141.33 5.24076C140.263 5.24076 139.907 5.3594 139.907 6.30853C139.907 7.37629 140.263 7.49493 141.33 7.49493C141.805 7.49493 142.398 7.37629 142.754 7.25765ZM143.466 7.73222C142.873 7.9695 141.923 8.20678 141.33 8.20678C139.788 8.20678 139.195 7.85086 139.195 6.42717C139.195 4.88484 140.144 4.64756 141.33 4.64756C141.923 4.64756 142.279 4.64756 142.873 4.7662C142.873 3.46115 142.517 3.22387 141.33 3.22387C140.856 3.22387 140.263 3.34251 139.788 3.46115L139.551 2.86794C140.025 2.7493 140.618 2.63066 141.33 2.63066C142.873 2.63066 143.584 3.10523 143.584 4.7662C143.466 4.52891 143.466 7.73222 143.466 7.73222ZM149.872 5.12212V3.22387H147.856C147.262 3.22387 146.906 3.46115 146.906 4.17299C146.906 4.7662 147.144 5.12212 147.856 5.12212H149.872ZM150.584 2.63066V7.9695H149.872V5.71532H148.923C148.093 5.71532 147.618 6.07125 146.788 7.9695H145.957C146.906 5.9526 147.381 5.59668 147.856 5.59668C146.669 5.59668 146.313 5.00348 146.313 4.17299C146.313 3.34251 146.669 2.63066 147.974 2.63066H150.584ZM87.4674 20.7827V18.8844C87.1115 18.7658 86.5183 18.7658 86.0437 18.7658C84.9759 18.7658 84.62 18.8844 84.62 19.8336C84.62 20.9013 84.9759 21.02 86.0437 21.02C86.5183 21.02 87.1115 20.9013 87.4674 20.7827ZM88.1792 21.2573C87.586 21.4945 86.6369 21.7318 86.0437 21.7318C84.5014 21.7318 83.9082 21.2573 83.9082 19.9522C83.9082 18.4099 84.8573 18.1726 86.0437 18.1726C86.6369 18.1726 86.9928 18.1726 87.586 18.2912C87.586 16.9862 87.2301 16.7489 86.0437 16.7489C85.5691 16.7489 84.9759 16.8676 84.5014 16.9862L84.2641 16.393C84.62 16.2744 85.3319 16.1557 86.0437 16.1557C87.586 16.1557 88.2979 16.6303 88.2979 18.2912C88.1792 18.054 88.1792 21.2573 88.1792 21.2573ZM95.0604 21.3759C94.7045 21.6132 93.9926 21.7318 93.5181 21.7318C91.8571 21.7318 90.908 21.02 90.908 18.8844C90.908 16.7489 91.8571 16.0371 93.5181 16.0371C93.9926 16.0371 94.7045 16.1557 95.0604 16.2744L94.8231 16.8676C94.4672 16.6303 93.9926 16.6303 93.5181 16.6303C92.213 16.6303 91.7384 16.9862 91.7384 18.7658C91.7384 20.5454 92.3317 20.9013 93.5181 20.9013C93.9926 20.9013 94.4672 20.7827 94.8231 20.6641L95.0604 21.3759ZM101.348 21.3759C100.992 21.6132 100.281 21.7318 99.806 21.7318C98.1451 21.7318 97.1959 21.02 97.1959 18.8844C97.1959 16.7489 98.1451 16.0371 99.806 16.0371C100.281 16.0371 100.992 16.1557 101.348 16.2744L101.111 16.8676C100.755 16.6303 100.281 16.6303 99.806 16.6303C98.501 16.6303 98.0264 16.9862 98.0264 18.7658C98.0264 20.5454 98.6196 20.9013 99.806 20.9013C100.281 20.9013 100.755 20.7827 101.111 20.6641L101.348 21.3759ZM105.857 16.6303C104.552 16.6303 104.196 16.9862 104.196 18.7658C104.196 20.5454 104.552 20.9013 105.857 20.9013C107.162 20.9013 107.518 20.4268 107.518 18.7658C107.636 16.9862 107.162 16.6303 105.857 16.6303ZM105.857 21.7318C104.196 21.7318 103.365 21.02 103.365 18.8844C103.365 16.7489 104.196 16.0371 105.857 16.0371C107.518 16.0371 108.348 16.6303 108.348 18.8844C108.348 21.02 107.636 21.7318 105.857 21.7318ZM115.467 20.9013H116.416L116.178 22.9182H115.704V21.6132H111.077V16.2744H111.789V21.02H114.755V16.2744H115.467V20.9013ZM122.229 17.3421C121.399 18.7658 120.331 20.3081 119.263 21.6132H118.551V16.2744H119.263V20.6641C120.331 19.359 121.28 17.8167 122.229 16.2744H122.941V21.6132H122.229V17.3421ZM129.229 20.7827V18.8844C128.873 18.7658 128.28 18.7658 127.805 18.7658C126.737 18.7658 126.382 18.8844 126.382 19.8336C126.382 20.9013 126.737 21.02 127.805 21.02C128.28 21.02 128.873 20.9013 129.229 20.7827ZM129.941 21.2573C129.348 21.4945 128.398 21.7318 127.805 21.7318C126.263 21.7318 125.67 21.2573 125.67 19.9522C125.67 18.4099 126.619 18.1726 127.805 18.1726C128.398 18.1726 128.754 18.1726 129.348 18.2912C129.348 16.9862 128.992 16.7489 127.805 16.7489C127.331 16.7489 126.737 16.8676 126.263 16.9862L126.026 16.393C126.382 16.2744 127.093 16.1557 127.805 16.1557C129.348 16.1557 130.059 16.6303 130.059 18.2912L129.941 21.2573ZM137.178 20.9013H138.127L137.89 22.9182H137.415V21.6132H132.788V16.2744H133.5V21.02H136.466V16.2744H137.178V20.9013ZM143.94 17.3421C143.11 18.7658 142.042 20.3081 140.974 21.6132H140.263V16.2744H140.974V20.6641C142.042 19.359 142.991 17.8167 143.94 16.2744H144.652V21.6132H143.94V17.3421ZM151.059 18.6472V16.7489H149.042C148.449 16.7489 148.093 16.9862 148.093 17.698C148.093 18.2912 148.33 18.6472 149.042 18.6472H151.059ZM151.771 16.1557V21.4945H151.059V19.2404H150.11C149.279 19.2404 148.805 19.5963 147.974 21.4945H147.144C148.093 19.4777 148.567 19.1217 149.042 19.1217C147.856 19.1217 147.5 18.5285 147.5 17.698C147.5 16.8676 147.856 16.1557 149.161 16.1557H151.771ZM84.7386 30.274V35.0196H84.0268V29.6808H88.2979V35.0196H87.586V30.274H84.7386ZM93.3994 30.1553C92.9249 30.1553 92.3317 30.274 91.8571 30.3926V33.7145C91.8571 34.1891 92.5689 34.4264 93.3994 34.4264C94.7045 34.4264 95.0604 33.9518 95.0604 32.2909C95.0604 30.5112 94.7045 30.1553 93.3994 30.1553ZM93.3994 35.2569C92.6876 35.2569 92.213 35.0196 91.8571 34.7823V37.1551H91.1452V30.0367C91.7384 29.7994 92.6876 29.5621 93.2808 29.5621C94.9418 29.5621 95.7722 30.1553 95.7722 32.4095C95.8909 34.545 95.0604 35.2569 93.3994 35.2569ZM100.874 30.1553C99.5687 30.1553 99.2128 30.5112 99.2128 32.2909C99.2128 34.0705 99.6874 34.4264 100.874 34.4264C102.179 34.4264 102.535 33.9518 102.535 32.2909C102.653 30.5112 102.179 30.1553 100.874 30.1553ZM100.874 35.2569C99.2128 35.2569 98.3823 34.545 98.3823 32.4095C98.3823 30.274 99.2128 29.5621 100.874 29.5621C102.535 29.5621 103.365 30.1553 103.365 32.4095C103.365 34.545 102.653 35.2569 100.874 35.2569ZM109.772 30.8672C108.941 32.2909 107.874 33.8332 106.806 35.1382H106.094V29.7994H106.806V34.1891C107.874 32.8841 108.823 31.3417 109.772 29.7994H110.484V35.1382H109.772V30.8672ZM117.128 33.5959C117.128 34.7823 116.297 35.2569 114.636 35.2569C114.043 35.2569 113.331 35.1382 112.857 35.0196L113.094 34.4264C113.568 34.545 114.043 34.6637 114.636 34.6637C115.941 34.6637 116.416 34.4264 116.416 33.5959C116.416 32.8841 115.941 32.5281 114.755 32.5281H114.043V31.9349H114.873C115.941 31.9349 116.416 31.6976 116.416 31.1044C116.416 30.5112 116.06 30.274 114.873 30.274C114.28 30.274 113.806 30.3926 113.331 30.5112L113.094 29.918C113.568 29.7994 114.28 29.6808 114.755 29.6808C116.416 29.6808 117.128 30.1553 117.128 30.9858C117.128 31.579 116.89 32.1722 115.823 32.2909C116.89 32.2909 117.128 32.8841 117.128 33.5959ZM123.653 33.4773C123.653 32.8841 123.416 32.4095 122.822 32.4095H120.687V34.3077H122.822C123.416 34.4264 123.653 34.1891 123.653 33.4773ZM123.534 31.1044C123.534 30.5112 123.416 30.3926 122.704 30.3926H120.687V31.9349H122.704C123.297 31.8163 123.534 31.579 123.534 31.1044ZM124.365 33.5959C124.365 34.6637 123.89 35.1382 122.822 35.1382H119.975V29.7994H122.822C124.009 29.7994 124.246 30.3926 124.246 31.1044C124.246 31.6976 124.127 32.1722 123.178 32.2909C124.127 32.1722 124.365 32.7654 124.365 33.5959ZM129.466 30.1553C128.161 30.1553 127.805 30.5112 127.805 32.2909C127.805 34.0705 128.161 34.4264 129.466 34.4264C130.771 34.4264 131.127 33.9518 131.127 32.2909C131.127 30.5112 130.653 30.1553 129.466 30.1553ZM129.466 35.2569C127.805 35.2569 126.975 34.545 126.975 32.4095C126.975 30.274 127.805 29.5621 129.466 29.5621C131.127 29.5621 131.958 30.1553 131.958 32.4095C131.839 34.545 131.127 35.2569 129.466 35.2569ZM136.347 30.274C136.229 31.579 135.873 33.1213 135.517 34.4264H138.246V30.274H136.347ZM134.805 34.4264C135.28 33.1213 135.636 31.4604 135.636 29.6808H138.957V34.4264H139.907L139.669 36.4433H139.195V35.1382H134.568V36.4433H134.093L133.856 34.4264H134.805ZM145.72 30.8672C144.89 32.2909 143.822 33.8332 142.754 35.1382H142.042V29.7994H142.754V34.1891C143.822 32.8841 144.771 31.3417 145.72 29.7994H146.432V35.1382H145.72V30.8672ZM151.415 35.0196H150.703V30.274H148.567V29.6808H153.432V30.274H151.296V35.0196H151.415ZM156.398 31.8163H159.482C159.364 30.5112 159.126 30.1553 158.059 30.1553C156.872 30.1553 156.398 30.5112 156.398 31.8163ZM160.194 32.4095H156.398C156.398 34.1891 156.991 34.545 158.177 34.545C158.652 34.545 159.245 34.4264 159.72 34.3077L159.838 34.901C159.245 35.0196 158.533 35.2569 158.059 35.2569C156.398 35.2569 155.567 34.545 155.567 32.4095C155.567 30.274 156.398 29.5621 157.94 29.5621C159.482 29.5621 160.194 30.1553 160.194 32.4095ZM164.228 30.274C164.109 31.8163 163.635 33.5959 163.279 35.0196H162.567C163.042 33.4773 163.516 31.6977 163.635 29.6808H166.957V35.0196H166.245V30.274H164.228ZM170.397 31.8163H173.482C173.363 30.5112 173.126 30.1553 172.058 30.1553C170.872 30.1553 170.397 30.5112 170.397 31.8163ZM174.194 32.4095H170.397C170.397 34.1891 170.99 34.545 172.177 34.545C172.651 34.545 173.245 34.4264 173.719 34.3077L173.838 34.901C173.245 35.0196 172.533 35.2569 172.058 35.2569C170.397 35.2569 169.567 34.545 169.567 32.4095C169.567 30.274 170.397 29.5621 171.94 29.5621C173.482 29.5621 174.194 30.1553 174.194 32.4095ZM178.109 27.6639C178.109 28.2571 178.346 28.3757 178.939 28.3757C179.533 28.3757 179.77 28.2571 179.77 27.6639H180.363C180.363 28.613 179.889 28.9689 178.939 28.9689C177.99 28.9689 177.516 28.4943 177.516 27.6639H178.109ZM180.363 30.8672C179.533 32.2909 178.465 33.8332 177.397 35.1382H176.685V29.7994H177.397V34.1891C178.465 32.8841 179.414 31.3417 180.363 29.7994H181.075V35.1382H180.363V30.8672ZM85.4505 48.9006C84.8573 47.0023 84.1454 44.7481 83.4336 43.3244H84.2641C84.8573 44.6295 85.4505 46.5277 85.9251 48.0701C86.5183 46.5277 87.2301 44.8668 87.586 43.3244H88.2979C87.7047 45.1041 86.9928 46.8837 86.281 48.6633C86.0437 49.3751 85.6878 50.087 85.3319 50.6802H84.5014C84.8573 50.087 85.2132 49.4938 85.4505 48.9006ZM92.4503 43.9176C92.3317 45.2227 91.9757 46.765 91.6198 48.0701H94.3485V43.9176H92.4503ZM90.908 47.9514C91.3825 46.6464 91.7384 44.9854 91.7384 43.2058H95.0604V47.9514H96.0095L95.7722 49.9683H95.2977V48.5446H90.6707V49.8497H90.1961L89.9588 47.8328L90.908 47.9514ZM100.518 43.6804C99.2128 43.6804 98.8569 44.0363 98.8569 45.8159C98.8569 47.5955 99.3315 47.9514 100.518 47.9514C101.823 47.9514 102.179 47.4769 102.179 45.8159C102.179 44.0363 101.823 43.6804 100.518 43.6804ZM100.518 48.7819C98.8569 48.7819 98.0264 48.0701 98.0264 45.9345C98.0264 43.799 98.8569 43.0872 100.518 43.0872C102.179 43.0872 103.009 43.6804 103.009 45.9345C103.009 48.0701 102.179 48.7819 100.518 48.7819ZM107.874 48.0701C109.179 48.0701 109.535 47.7142 109.535 46.0532C109.535 44.3922 109.06 44.0363 107.992 44.0363C106.687 44.0363 106.331 44.5109 106.331 46.0532C106.331 47.4769 106.806 48.0701 107.874 48.0701ZM109.89 41.6635C109.416 41.9008 108.704 42.0194 107.992 42.138C106.569 42.2567 106.45 42.8499 106.331 44.1549C106.687 43.6804 107.162 43.4431 107.992 43.4431C109.535 43.4431 110.246 44.1549 110.246 46.1718C110.246 48.3074 109.416 48.9006 107.755 48.9006C106.213 48.9006 105.501 48.0701 105.501 45.8159C105.501 42.3753 106.213 41.7821 107.992 41.5448C108.704 41.4262 109.297 41.4262 109.89 41.0703C109.89 40.9516 109.89 41.6635 109.89 41.6635ZM115.229 43.6804C114.755 43.6804 114.162 43.799 113.687 43.9176V47.3582C113.687 47.8328 114.399 48.0701 115.229 48.0701C116.534 48.0701 116.89 47.5955 116.89 45.9345C116.89 44.0363 116.416 43.6804 115.229 43.6804ZM115.229 48.7819C114.517 48.7819 114.043 48.5446 113.687 48.3074V50.6802H112.975V43.5617C113.568 43.3244 114.517 43.0872 115.111 43.0872C116.772 43.0872 117.602 43.6804 117.602 45.9345C117.602 48.0701 116.89 48.7819 115.229 48.7819ZM121.043 45.3413H124.127C124.009 44.0363 123.771 43.6804 122.704 43.6804C121.517 43.6804 121.161 44.0363 121.043 45.3413ZM124.839 45.9345H121.043C121.043 47.7142 121.636 48.0701 122.822 48.0701C123.297 48.0701 123.89 47.9514 124.365 47.8328L124.483 48.426C123.89 48.5446 123.178 48.7819 122.704 48.7819C121.043 48.7819 120.212 48.0701 120.212 45.9345C120.212 43.799 121.043 43.0872 122.585 43.0872C124.246 43.0872 124.839 43.6804 124.839 45.9345ZM128.161 45.9345V48.5446H127.449V43.2058H128.161V45.3413H131.127V43.2058H131.839V48.5446H131.127V45.9345H128.161ZM138.364 44.3922C137.534 45.8159 136.466 47.3582 135.398 48.6633H134.686V43.3244H135.398V47.7142C136.466 46.4091 137.415 44.8668 138.364 43.3244H139.076V48.5446H138.364V44.3922ZM143.229 41.1889C143.229 41.7821 143.466 41.9008 144.059 41.9008C144.652 41.9008 144.89 41.7821 144.89 41.1889H145.483C145.483 42.138 145.008 42.494 144.059 42.494C143.11 42.494 142.635 42.138 142.635 41.1889H143.229ZM145.483 44.3922C144.652 45.8159 143.584 47.3582 142.517 48.6633H141.805V43.3244H142.517V47.7142C143.584 46.4091 144.534 44.8668 145.483 43.3244H146.195V48.5446H145.483V44.3922Z" fill="white"/>
</g>
</g>
<defs>
<clipPath id="clip0_152_1737">
<rect width="168" height="60.31" fill="white"/>
</clipPath>
<clipPath id="clip1_152_1737">
<rect width="168" height="60.3156" fill="white" transform="translate(0 -0.00292969)"/>
</clipPath>
</defs>
</svg>
