<svg width="65" height="50" viewBox="0 0 65 50" fill="none" xmlns="http://www.w3.org/2000/svg">
<g clip-path="url(#clip0_152_3299)">
<path d="M53.168 7.6687V25.6646H49.1803V7.6687H45.6016V25.6646L49.3848 29.2433H53.168V38.6503H45.6016V42.229H53.168L56.7468 38.6503V7.6687H53.168Z" fill="#F04D44"/>
<path d="M31.5938 7.77095V11.2474V42.4335H35.2747V11.2474H39.467V42.4335H43.0457V11.2474H43.1479V7.6687H31.5938V7.77095Z" fill="#F04D44"/>
<path d="M17.5859 7.6687L21.1647 11.2474H25.3569V25.6646H21.1647L17.5859 29.2433V42.3313H19.8354H21.1647H21.3692L25.3569 38.6503H21.1647V29.2433H25.3569V38.6503V42.3313H28.9356V11.2474L25.3569 7.6687H17.5859Z" fill="#F04D44"/>
<path d="M11.453 11.2474H15.134V25.5623H11.453V11.2474ZM18.815 25.6646V11.3497L15.2363 7.77094H7.97656V7.87319V11.3497V42.4335H11.5553V29.2433H15.3385L18.815 25.6646Z" fill="#F04D44"/>
<path d="M61.4519 40.4908L55.5215 46.728H3.37424V3.37423H61.4519V40.4908ZM0 0V50H56.8507L64.7239 41.82V0H0Z" fill="#F04D44"/>
</g>
<defs>
<clipPath id="clip0_152_3299">
<rect width="65" height="50" fill="white"/>
</clipPath>
</defs>
</svg>
