<svg width="24" height="24" viewBox="0 0 24 24" fill="none" xmlns="http://www.w3.org/2000/svg">
<path d="M2.63733 13.1286C3.04825 14.0955 3.64558 14.972 4.39522 15.708C5.14486 16.444 6.03214 17.0252 7.00639 17.4183C7.98063 17.8114 9.02277 18.0088 10.0733 17.9992C11.1238 17.9896 12.1622 17.7731 13.1291 17.3622C14.0959 16.9513 14.9724 16.354 15.7085 15.6043C16.4445 14.8547 17.0257 13.9674 17.4188 12.9932C17.8119 12.0189 18.0093 10.9768 17.9997 9.92624C17.99 8.87571 17.7736 7.83737 17.3627 6.87049C16.9518 5.90361 16.3544 5.02713 15.6048 4.2911C14.8551 3.55507 13.9679 2.9739 12.9936 2.58077C12.0194 2.18764 10.9772 1.99025 9.92669 1.99988C8.87616 2.0095 7.83781 2.22595 6.87093 2.63687C5.90405 3.04778 5.02757 3.64511 4.29154 4.39476C3.55551 5.1444 2.97434 6.03168 2.58122 7.00592C2.18809 7.98017 1.99071 9.02231 2.00034 10.0728C2.00996 11.1234 2.22642 12.1617 2.63733 13.1286Z" stroke="#3E434A" stroke-width="2" stroke-linecap="round" stroke-linejoin="round"/>
<path d="M16 15.9995L22 21.9995" stroke="#3E434A" stroke-width="2" stroke-linecap="round" stroke-linejoin="round"/>
</svg>
