<svg width="48" height="48" viewBox="0 0 48 48" fill="none" xmlns="http://www.w3.org/2000/svg">
<path d="M27 1.5V19.5H45C45 14.7261 43.1036 10.1477 39.7279 6.77208C36.3523 3.39642 31.7739 1.5 27 1.5Z" stroke="#F04D44" stroke-width="2" stroke-linecap="round" stroke-linejoin="round"/>
<path d="M20.9984 28.5V10.5C18.1293 10.5002 15.3018 11.1864 12.7516 12.5011C10.2015 13.8159 8.00252 15.7212 6.33814 18.0583C4.67376 20.3953 3.59217 23.0964 3.18351 25.9363C2.77486 28.7762 3.051 31.6726 3.98891 34.3841C4.92681 37.0956 6.49931 39.5436 8.57531 41.5241C10.6513 43.5045 13.1707 44.96 15.9233 45.7693C18.676 46.5785 21.5822 46.7179 24.3997 46.176C27.2172 45.6341 29.8643 44.4266 32.1204 42.654L20.9984 28.5Z" stroke="#F04D44" stroke-width="2" stroke-linecap="round" stroke-linejoin="round"/>
<path d="M45 25.5H27L38.122 39.654C40.267 37.971 42.0009 35.822 43.1925 33.3698C44.3842 30.9176 45.0023 28.2264 45 25.5Z" stroke="#F04D44" stroke-width="2" stroke-linecap="round" stroke-linejoin="round"/>
</svg>
