<svg width="48" height="48" viewBox="0 0 48 48" fill="none" xmlns="http://www.w3.org/2000/svg">
<g clip-path="url(#clip0_152_1530)">
<path d="M34.7227 24.328C34.7227 25.2599 35.0929 26.1537 35.7519 26.8127C36.4109 27.4717 37.3047 27.842 38.2367 27.842C39.1686 27.842 40.0624 27.4717 40.7214 26.8127C41.3804 26.1537 41.7507 25.2599 41.7507 24.328C41.7507 23.396 41.3804 22.5022 40.7214 21.8432C40.0624 21.1842 39.1686 20.814 38.2367 20.814C37.3047 20.814 36.4109 21.1842 35.7519 21.8432C35.0929 22.5022 34.7227 23.396 34.7227 24.328Z" stroke="#F04D44" stroke-width="2" stroke-linecap="round" stroke-linejoin="round"/>
<path d="M43.9796 33.2279C43.3016 32.3537 42.4326 31.6462 41.4391 31.1595C40.4456 30.6727 39.3539 30.4197 38.2476 30.4197C37.1413 30.4197 36.0496 30.6727 35.0561 31.1595C34.0627 31.6462 33.1937 32.3537 32.5156 33.2279" stroke="#F04D44" stroke-width="2" stroke-linecap="round" stroke-linejoin="round"/>
<path d="M6.24609 24.328C6.24609 25.2599 6.61632 26.1537 7.27532 26.8127C7.93432 27.4717 8.82812 27.842 9.76009 27.842C10.6921 27.842 11.5859 27.4717 12.2449 26.8127C12.9039 26.1537 13.2741 25.2599 13.2741 24.328C13.2741 23.396 12.9039 22.5022 12.2449 21.8432C11.5859 21.1842 10.6921 20.814 9.76009 20.814C8.82812 20.814 7.93432 21.1842 7.27532 21.8432C6.61632 22.5022 6.24609 23.396 6.24609 24.328Z" stroke="#F04D44" stroke-width="2" stroke-linecap="round" stroke-linejoin="round"/>
<path d="M4.01953 33.226C4.6964 32.3516 5.5642 31.6435 6.55663 31.1559C7.54906 30.6682 8.63985 30.4139 9.74561 30.4124C10.8514 30.4108 11.9429 30.6621 12.9367 31.147C13.9304 31.6319 14.8002 32.3375 15.4795 33.21" stroke="#F04D44" stroke-width="2" stroke-linecap="round" stroke-linejoin="round"/>
<path d="M32.9631 36.0001C32.9631 33.6232 32.0189 31.3437 30.3382 29.663C28.6575 27.9823 26.3779 27.0381 24.0011 27.0381C21.6242 27.0381 19.3447 27.9823 17.664 29.663C15.9833 31.3437 15.0391 33.6232 15.0391 36.0001" stroke="#F04D44" stroke-width="2" stroke-linecap="round" stroke-linejoin="round"/>
<path d="M18.6133 19.296C18.6133 20.7006 19.1713 22.0476 20.1644 23.0408C21.1576 24.034 22.5047 24.592 23.9093 24.592C25.3139 24.592 26.6609 24.034 27.6541 23.0408C28.6473 22.0476 29.2053 20.7006 29.2053 19.296C29.2053 18.6005 29.0683 17.9118 28.8021 17.2693C28.536 16.6268 28.1459 16.0429 27.6541 15.5512C27.1623 15.0594 26.5785 14.6693 25.936 14.4031C25.2934 14.137 24.6048 14 23.9093 14C23.2138 14 22.5251 14.137 21.8826 14.4031C21.24 14.6693 20.6562 15.0594 20.1644 15.5512C19.6727 16.0429 19.2826 16.6268 19.0164 17.2693C18.7503 17.9118 18.6133 18.6005 18.6133 19.296Z" stroke="#F04D44" stroke-width="2" stroke-linecap="round" stroke-linejoin="round"/>
<path d="M1.5 24C1.5 29.9674 3.87053 35.6903 8.0901 39.9099C12.3097 44.1295 18.0326 46.5 24 46.5C29.9674 46.5 35.6903 44.1295 39.9099 39.9099C44.1295 35.6903 46.5 29.9674 46.5 24C46.5 18.0326 44.1295 12.3097 39.9099 8.0901C35.6903 3.87053 29.9674 1.5 24 1.5C18.0326 1.5 12.3097 3.87053 8.0901 8.0901C3.87053 12.3097 1.5 18.0326 1.5 24Z" stroke="#F04D44" stroke-width="2" stroke-linecap="round" stroke-linejoin="round"/>
</g>
<defs>
<clipPath id="clip0_152_1530">
<rect width="48" height="48" fill="white"/>
</clipPath>
</defs>
</svg>
